<?xml version="1.0" encoding="UTF-8" standalone="no"?>
<svg
   xmlns:dc="http://purl.org/dc/elements/1.1/"
   xmlns:cc="http://creativecommons.org/ns#"
   xmlns:rdf="http://www.w3.org/1999/02/22-rdf-syntax-ns#"
   xmlns:svg="http://www.w3.org/2000/svg"
   xmlns="http://www.w3.org/2000/svg"
   xmlns:sodipodi="http://sodipodi.sourceforge.net/DTD/sodipodi-0.dtd"
   xmlns:inkscape="http://www.inkscape.org/namespaces/inkscape"
   sodipodi:docname="Propsed_Logo.svg"
   inkscape:version="1.0 (4035a4fb49, 2020-05-01)"
   id="svg8"
   version="1.1"
   viewBox="0 0 221.89987 46.685684"
   height="46.685684mm"
   width="221.89987mm">
  <defs
     id="defs2" />
  <sodipodi:namedview
     inkscape:window-maximized="0"
     inkscape:window-y="0"
     inkscape:window-x="0"
     inkscape:window-height="1034"
     inkscape:window-width="1901"
     showgrid="false"
     inkscape:document-rotation="0"
     inkscape:current-layer="layer1"
     inkscape:document-units="mm"
     inkscape:cy="279.56005"
     inkscape:cx="462.22435"
     inkscape:zoom="1"
     inkscape:pageshadow="2"
     inkscape:pageopacity="0.0"
     borderopacity="1.0"
     bordercolor="#666666"
     pagecolor="#ffffff"
     id="base" />
  <metadata
     id="metadata5">
    <rdf:RDF>
      <cc:Work
         rdf:about="">
        <dc:format>image/svg+xml</dc:format>
        <dc:type
           rdf:resource="http://purl.org/dc/dcmitype/StillImage" />
        <dc:title></dc:title>
      </cc:Work>
    </rdf:RDF>
  </metadata>
  <g
     transform="translate(4.6160508,-19.166404)"
     id="layer1"
     inkscape:groupmode="layer"
     inkscape:label="Calque 1">
    <text
       id="text12"
       y="49.136909"
       x="31.409822"
       style="font-style:normal;font-weight:normal;font-size:19.7556px;line-height:1.25;font-family:sans-serif;fill:#000000;fill-opacity:1;stroke:none;stroke-width:0.264583"
       xml:space="preserve"><tspan
         style="font-style:normal;font-variant:normal;font-weight:bold;font-stretch:normal;font-size:19.7556px;font-family:Consolas;-inkscape-font-specification:'Consolas Bold';fill:#aa4400;fill-opacity:1;stroke-width:0.264583"
         y="49.136909"
         x="31.409822"
         id="tspan10"
         sodipodi:role="line">Bricks &amp; Tiles</tspan></text>
    <rect
       ry="2.5443454"
       y="54.033638"
       x="23.341974"
       height="11.524388"
       width="27.663969"
       id="rect14"
       style="fill:#aa4400;fill-opacity:1;stroke:#de8787;stroke-width:0.588112;stroke-linecap:square;stroke-linejoin:round;stroke-miterlimit:4;stroke-dasharray:none;paint-order:markers fill stroke" />
    <rect
       style="fill:#aa4400;fill-opacity:1;stroke:#de8787;stroke-width:0.588113;stroke-linecap:square;stroke-linejoin:round;stroke-miterlimit:4;stroke-dasharray:none;paint-order:markers fill stroke"
       id="rect14-3"
       width="27.663969"
       height="11.524388"
       x="51.005943"
       y="54.033638"
       ry="2.5443454" />
    <rect
       style="fill:#aa4400;fill-opacity:1;stroke:#de8787;stroke-width:0.588113;stroke-linecap:square;stroke-linejoin:round;stroke-miterlimit:4;stroke-dasharray:none;paint-order:markers fill stroke"
       id="rect14-1"
       width="27.663969"
       height="11.524388"
       x="78.669914"
       y="54.033638"
       ry="2.5443454" />
    <rect
       ry="2.5443454"
       y="54.033638"
       x="106.33389"
       height="11.524388"
       width="27.663969"
       id="rect14-1-9"
       style="fill:#aa4400;fill-opacity:1;stroke:#de8787;stroke-width:0.588113;stroke-linecap:square;stroke-linejoin:round;stroke-miterlimit:4;stroke-dasharray:none;paint-order:markers fill stroke" />
    <rect
       style="fill:#aa4400;fill-opacity:1;stroke:#de8787;stroke-width:0.588113;stroke-linecap:square;stroke-linejoin:round;stroke-miterlimit:4;stroke-dasharray:none;paint-order:markers fill stroke"
       id="rect14-1-9-8"
       width="27.663969"
       height="11.524388"
       x="133.99786"
       y="54.033642"
       ry="2.5443454" />
    <rect
       ry="2.5443454"
       y="54.033642"
       x="161.66183"
       height="11.524388"
       width="27.663969"
       id="rect14-1-9-8-0"
       style="fill:#aa4400;fill-opacity:1;stroke:#de8787;stroke-width:0.588113;stroke-linecap:square;stroke-linejoin:round;stroke-miterlimit:4;stroke-dasharray:none;paint-order:markers fill stroke" />
    <rect
       style="fill:#aa4400;fill-opacity:1;stroke:#de8787;stroke-width:0.588113;stroke-linecap:square;stroke-linejoin:round;stroke-miterlimit:4;stroke-dasharray:none;paint-order:markers fill stroke"
       id="rect14-4"
       width="27.663969"
       height="11.524388"
       x="-4.3219938"
       y="54.033642"
       ry="2.5443454" />
    <rect
       ry="2.5443454"
       y="42.509247"
       x="-4.3219943"
       height="11.524388"
       width="27.663969"
       id="rect14-4-7"
       style="fill:#aa4400;fill-opacity:1;stroke:#de8787;stroke-width:0.588113;stroke-linecap:square;stroke-linejoin:round;stroke-miterlimit:4;stroke-dasharray:none;paint-order:markers fill stroke" />
    <rect
       style="fill:#aa4400;fill-opacity:1;stroke:#de8787;stroke-width:0.588113;stroke-linecap:square;stroke-linejoin:round;stroke-miterlimit:4;stroke-dasharray:none;paint-order:markers fill stroke"
       id="rect14-4-7-4"
       width="27.663969"
       height="11.524388"
       x="-4.3219943"
       y="30.984859"
       ry="2.5443454" />
    <rect
       style="fill:#aa4400;fill-opacity:1;stroke:#de8787;stroke-width:0.588113;stroke-linecap:square;stroke-linejoin:round;stroke-miterlimit:4;stroke-dasharray:none;paint-order:markers fill stroke"
       id="rect14-5"
       width="27.663969"
       height="11.524388"
       x="23.341969"
       y="19.460461"
       ry="2.5443454" />
    <rect
       ry="2.5443454"
       y="19.460461"
       x="51.005947"
       height="11.524388"
       width="27.663969"
       id="rect14-3-6"
       style="fill:#aa4400;fill-opacity:1;stroke:#de8787;stroke-width:0.588113;stroke-linecap:square;stroke-linejoin:round;stroke-miterlimit:4;stroke-dasharray:none;paint-order:markers fill stroke" />
    <rect
       ry="2.5443454"
       y="19.460461"
       x="78.669922"
       height="11.524388"
       width="27.663969"
       id="rect14-1-1"
       style="fill:#aa4400;fill-opacity:1;stroke:#de8787;stroke-width:0.588113;stroke-linecap:square;stroke-linejoin:round;stroke-miterlimit:4;stroke-dasharray:none;paint-order:markers fill stroke" />
    <rect
       style="fill:#aa4400;fill-opacity:1;stroke:#de8787;stroke-width:0.588113;stroke-linecap:square;stroke-linejoin:round;stroke-miterlimit:4;stroke-dasharray:none;paint-order:markers fill stroke"
       id="rect14-1-9-3"
       width="27.663969"
       height="11.524388"
       x="106.33389"
       y="19.460461"
       ry="2.5443454" />
    <rect
       ry="2.5443454"
       y="19.460468"
       x="133.99788"
       height="11.524388"
       width="27.663969"
       id="rect14-1-9-8-5"
       style="fill:#aa4400;fill-opacity:1;stroke:#de8787;stroke-width:0.588113;stroke-linecap:square;stroke-linejoin:round;stroke-miterlimit:4;stroke-dasharray:none;paint-order:markers fill stroke" />
    <rect
       style="fill:#aa4400;fill-opacity:1;stroke:#de8787;stroke-width:0.588113;stroke-linecap:square;stroke-linejoin:round;stroke-miterlimit:4;stroke-dasharray:none;paint-order:markers fill stroke"
       id="rect14-1-9-8-0-6"
       width="27.663969"
       height="11.524388"
       x="161.66182"
       y="19.460468"
       ry="2.5443454" />
    <rect
       ry="2.5443454"
       y="19.460468"
       x="-4.3219943"
       height="11.524388"
       width="27.663969"
       id="rect14-4-0"
       style="fill:#aa4400;fill-opacity:1;stroke:#de8787;stroke-width:0.588113;stroke-linecap:square;stroke-linejoin:round;stroke-miterlimit:4;stroke-dasharray:none;paint-order:markers fill stroke" />
    <rect
       ry="2.5443454"
       y="54.033642"
       x="189.32579"
       height="11.524388"
       width="27.663969"
       id="rect14-4-6"
       style="fill:#aa4400;fill-opacity:1;stroke:#de8787;stroke-width:0.588113;stroke-linecap:square;stroke-linejoin:round;stroke-miterlimit:4;stroke-dasharray:none;paint-order:markers fill stroke" />
    <rect
       style="fill:#aa4400;fill-opacity:1;stroke:#de8787;stroke-width:0.588113;stroke-linecap:square;stroke-linejoin:round;stroke-miterlimit:4;stroke-dasharray:none;paint-order:markers fill stroke"
       id="rect14-4-7-2"
       width="27.663969"
       height="11.524388"
       x="189.32579"
       y="42.509243"
       ry="2.5443454" />
    <rect
       ry="2.5443454"
       y="30.984856"
       x="189.32579"
       height="11.524388"
       width="27.663969"
       id="rect14-4-7-4-1"
       style="fill:#aa4400;fill-opacity:1;stroke:#de8787;stroke-width:0.588113;stroke-linecap:square;stroke-linejoin:round;stroke-miterlimit:4;stroke-dasharray:none;paint-order:markers fill stroke" />
    <rect
       style="fill:#aa4400;fill-opacity:1;stroke:#de8787;stroke-width:0.588113;stroke-linecap:square;stroke-linejoin:round;stroke-miterlimit:4;stroke-dasharray:none;paint-order:markers fill stroke"
       id="rect14-4-0-2"
       width="27.663969"
       height="11.524388"
       x="189.32579"
       y="19.460464"
       ry="2.5443454" />
    <path
       transform="scale(0.26458333)"
       id="path1009"
       d="m 86.527882,205.82144 c -1.534296,-1.5343 -1.477898,-1.85611 0.799634,-4.56281 2.369429,-2.8159 2.450357,-3.4231 2.450357,-18.38501 0,-11.91362 -0.350961,-16.15162 -1.525681,-18.42328 C 87.413068,162.82765 86.30163,161.5 85.782329,161.5 c -0.5193,0 0.196167,-1.6804 1.589928,-3.73422 2.492303,-3.67261 2.528927,-4.0013 2.219863,-19.92231 -0.294212,-15.15598 -0.456813,-16.33966 -2.550328,-18.56541 -2.078368,-2.20965 -2.119654,-2.49375 -0.585357,-4.02805 1.534296,-1.5343 1.856112,-1.4779 4.562805,0.79963 L 93.931324,118.5 h 46.788416 c 45.82038,0 46.84293,-0.0429 49.42327,-2.07258 l 2.63486,-2.07258 2.63486,2.07258 c 2.58034,2.0297 3.60289,2.07258 49.42327,2.07258 h 46.78842 l 2.84723,-2.39578 2.84722,-2.39579 2.78526,2.39579 2.78527,2.39578 h 46.80938 c 45.47529,0 46.88268,-0.0577 49.38165,-2.02336 l 2.57229,-2.02335 3.31257,2.01962 c 3.19575,1.94838 4.9279,2.01975 49.11224,2.02335 39.10267,0.003 46.23107,-0.21935 48.75,-1.52194 1.62269,-0.83912 2.95034,-2.00413 2.95034,-2.58889 0,-0.58477 1.38453,0.10178 3.07673,1.52568 l 3.07672,2.58889 h 46.84655 46.84655 l 3.07672,-2.58889 c 1.6922,-1.4239 3.07673,-2.11045 3.07673,-1.52568 0,0.58476 1.32765,1.74977 2.95034,2.58889 2.51893,1.30259 9.64733,1.52513 48.75,1.52194 44.33215,-0.004 45.90685,-0.0691 49.14503,-2.0433 2.50984,-1.53016 3.67809,-1.76342 4.67756,-0.93393 1.08668,0.90186 0.87272,1.78271 -1.16093,4.77946 -2.43514,3.58838 -2.48578,4.03861 -2.17756,19.35777 0.2868,14.25467 0.51356,15.9514 2.48831,18.61887 l 2.17276,2.93492 -2.17276,2.17275 c -2.05883,2.05884 -2.17275,3.05841 -2.17275,19.06441 0,16.10982 0.1035,17.00183 2.23608,19.27186 2.0975,2.23269 2.13156,2.48472 0.54963,4.06664 -1.58192,1.58193 -1.83396,1.54787 -4.06664,-0.54963 L 710.61674,203 h -47.39166 c -47.107,0 -47.40452,0.0129 -49.53386,2.14221 l -2.14221,2.14221 -3.52512,-2.39221 -3.52511,-2.39221 h -45.72091 -45.72091 l -3.52511,2.39221 -3.52512,2.39221 -2.14147,-2.14221 c -2.1183,-2.11903 -2.63936,-2.14523 -48.15189,-2.42135 -40.98099,-0.24863 -46.38891,-0.0995 -49.47296,1.36394 -1.9044,0.9037 -3.46254,2.02825 -3.46254,2.49901 0,0.47075 -1.6378,-0.25552 -3.63955,-1.61395 L 395.49878,202.5 h -45.72091 -45.72091 l -3.52511,2.39221 -3.52512,2.39221 -2.14143,-2.14221 c -2.11565,-2.11642 -2.67994,-2.14579 -46.86443,-2.43934 -24.59765,-0.16342 -46.2106,-0.0258 -48.02878,0.30578 -1.81817,0.3316 -4.18975,1.48688 -5.27016,2.56729 -1.95252,1.95252 -1.97742,1.95226 -4.11943,-0.0433 -1.18527,-1.10424 -3.5387,-2.25953 -5.22983,-2.56729 -1.69114,-0.30777 -23.17642,-0.42587 -47.74506,-0.26245 L 92.937343,203 l -2.37937,2.23608 c -2.211551,2.07837 -2.495795,2.11965 -4.030091,0.58536 z M 351.4508,185.93442 c 3.40342,-0.67951 8.11474,-5.19119 8.83225,-8.45799 1.54542,-7.03628 -3.03038,-12.20093 -13.21018,-14.91017 -2.31275,-0.61551 -4.93239,-1.84651 -5.82143,-2.73554 -1.43533,-1.43534 -1.44872,-1.78414 -0.11954,-3.11332 1.72486,-1.72486 5.16361,-1.97739 11.89597,-0.87362 l 4.75,0.77877 v -3.93628 c 0,-3.60862 -0.26012,-3.98829 -3.125,-4.56127 -5.54217,-1.10843 -13.73001,-0.66682 -17.79531,0.95979 -4.87669,1.95126 -7.07969,5.13928 -7.07969,10.24517 0,5.7012 2.79698,8.61502 10.76144,11.21098 3.70621,1.20801 7.41356,2.84701 8.23856,3.64223 1.32841,1.28046 1.22995,1.66726 -0.86078,3.38134 -3.0473,2.49833 -6.98115,2.3801 -15.88922,-0.47751 -2.10934,-0.67665 -2.25,-0.43742 -2.25,3.82656 0,3.9004 0.32053,4.62032 2.25,5.05367 5.35833,1.20344 13.29811,1.19003 19.42293,-0.0328 z m 81.47648,-1.04915 c 2.2516,-1.13251 2.83305,-1.11133 3.87245,0.14107 1.35304,1.63031 11.97814,2.13439 11.97814,0.56827 0,-0.49796 -1.575,-2.79053 -3.5,-5.09461 -1.925,-2.30407 -3.5,-4.31669 -3.5,-4.47249 0,-0.15579 0.675,-1.89876 1.5,-3.87327 0.825,-1.9745 1.5,-5.40446 1.5,-7.62212 V 160.5 h -4.5 c -4.47619,0 -4.5,0.0185 -4.5,3.5 0,4.09726 -0.49668,4.29711 -3.10657,1.25 -4.0385,-4.71504 -4.07701,-5.36641 -0.46363,-7.84233 4.50803,-3.08895 6.5702,-6.82773 6.5702,-11.91196 0,-3.43826 -0.6138,-4.80951 -3.4,-7.59571 -3.18132,-3.18132 -3.82544,-3.4 -10.01469,-3.4 -6.08278,0 -6.90286,0.2641 -10.19853,3.28435 -4.7583,4.36066 -5.68341,10.61543 -2.47927,16.76271 l 2.15728,4.13883 -3.5324,3.90993 c -4.18529,4.63262 -5.00873,10.50532 -2.39845,17.10543 2.64241,6.68137 15.5143,9.45991 24.01547,5.18402 z m 211.60059,1.01805 c 3.01736,-0.45859 3.25,-0.76911 3.25,-4.33797 v -3.84403 l -8.41011,0.52469 c -8.04784,0.50209 -8.52166,0.41313 -11,-2.06521 -1.42444,-1.42444 -2.58989,-3.51034 -2.58989,-4.63534 0,-1.94807 0.57691,-2.04546 12.1165,-2.04546 h 12.11649 l -0.4132,-6.48923 c -0.65727,-10.3222 -6.13581,-15.52311 -16.31979,-15.49277 -10.93097,0.0326 -17.5,7.60727 -17.5,20.17912 0,16.0951 8.25302,21.3214 28.75,18.2062 z m 35.92293,0.0311 c 3.40342,-0.6795 8.11474,-5.19119 8.83225,-8.45799 1.54542,-7.03627 -3.03038,-12.20092 -13.21018,-14.91017 -2.31275,-0.61551 -4.93239,-1.8465 -5.82143,-2.73554 -1.43533,-1.43534 -1.44872,-1.78413 -0.11954,-3.11332 1.72486,-1.72485 5.16361,-1.97739 11.89597,-0.87362 l 4.75,0.77877 v -3.93627 c 0,-3.60863 -0.26012,-3.9883 -3.125,-4.56128 -5.54217,-1.10843 -13.73001,-0.66682 -17.79531,0.9598 -4.87669,1.95125 -7.07969,5.13927 -7.07969,10.24516 0,5.7012 2.79698,8.61502 10.76144,11.21098 3.70621,1.20801 7.41356,2.84701 8.23856,3.64223 1.32841,1.28046 1.22995,1.66726 -0.86078,3.38134 -3.0473,2.49833 -6.98115,2.3801 -15.88922,-0.47751 -2.10934,-0.67665 -2.25,-0.43742 -2.25,3.82656 0,3.9004 0.32053,4.62032 2.25,5.05367 5.35833,1.20344 13.29811,1.19003 19.42293,-0.0328 z m -531.00783,-1.76123 c 4.27106,-2.20866 7.03691,-5.94991 7.81843,-10.5757 0.77822,-4.60622 -1.34378,-10.41715 -4.40168,-12.05369 l -2.08747,-1.11718 2.25281,-3.04709 c 3.2185,-4.35325 3.13456,-11.77983 -0.17293,-15.30049 -3.31918,-3.5331 -7.80039,-4.56692 -19.82426,-4.57346 l -10.25,-0.006 v 24.63727 24.63727 l 11.75339,-0.48406 c 8.11862,-0.33437 12.73011,-0.98915 14.91171,-2.11729 z m 26.3349,-9.26882 c 0,-10.1226 0.2629,-11.96484 2.06955,-14.50203 4.25257,-5.97219 9.93045,-5.89623 9.93045,0.13284 0,2.90093 0.1105,2.96482 5.12723,2.96482 h 5.12723 l -0.49875,-5.19061 c -0.41039,-4.27097 -1.07806,-5.70822 -3.76849,-8.11212 -2.9458,-2.63207 -3.80138,-2.87741 -8.63617,-2.47648 -3.83079,0.31768 -6.07962,1.11504 -7.85874,2.78643 l -2.49231,2.34141 v -2.17432 c 0,-1.91029 -0.54641,-2.17431 -4.5,-2.17431 h -4.5 v 19 19 h 5 5 z m 62.81037,7.34563 0.31036,-3.75 h -5.56036 -5.56037 v -15 -15 h -10.5 -10.5 v 4 4 h 5.5 5.5 v 11 11 h -6 -6 v 4.02477 4.02477 l 16.25,-0.27477 16.25,-0.27477 z m 36.62453,3.27475 c 2.21344,-0.84155 2.5651,-1.57443 2.5651,-5.34584 v -4.37059 l -5.43824,1.38507 c -4.7287,1.20435 -5.90763,1.18893 -9.03599,-0.11817 -6.79887,-2.84075 -8.37272,-12.81918 -2.88712,-18.30478 2.21459,-2.21459 3.10836,-2.44392 7.68372,-1.97159 2.8477,0.29398 6.19013,0.84949 7.42763,1.23446 2.12849,0.66215 2.25,0.42752 2.25,-4.34472 v -5.04468 l -5.49389,-0.68641 c -15.88729,-1.98499 -25.45243,5.23021 -25.48966,19.2274 -0.0252,9.48184 2.88142,14.96912 9.48355,17.90346 3.52465,1.56654 15.25152,1.83681 18.9349,0.43639 z m 22.77617,-7.59125 0.28893,-8.5665 6.3397,8.5665 6.33971,8.5665 h 5.91029 c 3.4062,0 5.9103,-0.43845 5.9103,-1.03484 0,-0.56916 -3.01092,-4.73166 -6.69094,-9.25 -3.68001,-4.51834 -7.11443,-8.78286 -7.63204,-9.47672 -0.66864,-0.89632 1.12376,-3.54837 6.19094,-9.16019 3.92262,-4.34424 7.13204,-8.16403 7.13204,-8.48843 0,-0.3244 -2.69798,-0.58982 -5.9955,-0.58982 h -5.99551 l -5.75449,7.04666 -5.7545,7.04665 -0.27673,-14.54665 L 297.7244,133.5 h -4.97326 -4.97327 V 160 186.5 H 292.73894 297.7 Z M 514.77787,166.5 v -20 h 6.5 6.5 v -4.5 -4.5 h -18.5 -18.5 v 4.5 4.5 h 6.5 6.5 v 19.33333 c 0,10.63334 0.3,19.63334 0.66667,20 0.36666,0.36667 2.84166,0.66667 5.5,0.66667 h 4.83333 z m 53,16 v -4 h -5.5 -5.5 v -15 -15 h -10.5 -10.5 v 4 4 h 5.5 5.5 v 11 11 h -6 -6 v 4 4 h 16.5 16.5 z m 41,0 v -4 h -5.5 -5.5 V 156 133.5 h -10.5 -10.5 v 4 4 h 5.5 5.5 v 18.5 18.5 h -6 -6 v 4 4 h 16.5 16.5 z M 227.57533,141.25 c 1.08217,-2.26884 1.0822,-3.23116 1.5e-4,-5.5 -2.68504,-5.63 -11.79761,-3.44134 -11.79761,2.83356 0,3.98088 2.52403,6.08302 6.86728,5.71939 2.80888,-0.23517 3.912,-0.91825 4.93018,-3.05295 z m 329,0 c 1.08217,-2.26884 1.0822,-3.23116 1.5e-4,-5.5 -2.68504,-5.63 -11.79761,-3.44134 -11.79761,2.83356 0,3.98088 2.52403,6.08302 6.86728,5.71939 2.80888,-0.23517 3.912,-0.91825 4.93018,-3.05295 z"
       style="fill:#dd8685;fill-opacity:1;stroke:#de8787;stroke-width:3.77953;stroke-linecap:square;stroke-linejoin:round;stroke-miterlimit:4;stroke-dasharray:none;paint-order:markers fill stroke" />
    <path
       transform="scale(0.26458333)"
       id="path1011"
       d="M 132.77787,151.63005 V 145.5 h 3.7775 c 4.99215,0 8.2225,2.33137 8.2225,5.93426 0,3.66914 -1.96685,5.19496 -7.50054,5.81869 l -4.49946,0.50716 z"
       style="fill:#dd8685;fill-opacity:1;stroke:#de8787;stroke-width:3.77953;stroke-linecap:square;stroke-linejoin:round;stroke-miterlimit:4;stroke-dasharray:none;paint-order:markers fill stroke" />
    <path
       transform="scale(0.26458333)"
       id="path1015"
       d="m 132.77787,171.5 v -6 h 5 c 3.66667,0 5.53334,0.53333 7,2 4.64414,4.64413 0.89503,10 -7,10 h -5 z"
       style="fill:#dd8685;fill-opacity:1;stroke:#de8787;stroke-width:3.77953;stroke-linecap:square;stroke-linejoin:round;stroke-miterlimit:4;stroke-dasharray:none;paint-order:markers fill stroke" />
    <path
       transform="scale(0.26458333)"
       id="path1017"
       d="m 421.23678,150.0559 c -1.60231,-3.83488 -1.12185,-6.13073 1.5863,-7.58009 2.25342,-1.206 4.6947,-0.33032 6.02882,2.16251 1.10485,2.06443 0.70589,3.16484 -2.39711,6.61168 -2.72932,3.03176 -3.52877,2.84881 -5.21801,-1.1941 z"
       style="fill:#dd8685;fill-opacity:1;stroke:#de8787;stroke-width:3.77953;stroke-linecap:square;stroke-linejoin:round;stroke-miterlimit:4;stroke-dasharray:none;paint-order:markers fill stroke" />
    <path
       transform="scale(0.26458333)"
       id="path1019"
       d="m 420.17758,177.73469 c -3.3903,-2.26376 -3.91353,-8.73344 -0.90805,-11.22777 0.98858,-0.82045 2.43071,0.25374 6.08817,4.53484 3.84843,4.50464 4.50975,5.78902 3.35645,6.51878 -1.72591,1.0921 -7.00065,1.19971 -8.53657,0.17415 z"
       style="fill:#dd8685;fill-opacity:1;stroke:#de8787;stroke-width:3.77953;stroke-linecap:square;stroke-linejoin:round;stroke-miterlimit:4;stroke-dasharray:none;paint-order:markers fill stroke" />
    <path
       transform="scale(0.26458333)"
       id="path1021"
       d="m 625.77787,161.63486 c 0,-0.47583 0.93266,-2.05083 2.07258,-3.5 2.71439,-3.45079 8.09273,-3.66464 10.37072,-0.41235 2.86753,4.09398 2.08877,4.77749 -5.4433,4.77749 -3.85,0 -7,-0.38931 -7,-0.86514 z"
       style="fill:#dd8685;fill-opacity:1;stroke:#de8787;stroke-width:3.77953;stroke-linecap:square;stroke-linejoin:round;stroke-miterlimit:4;stroke-dasharray:none;paint-order:markers fill stroke" />
  </g>
</svg>
